<svg width="41" height="40" viewBox="0 0 41 40" fill="none" xmlns="http://www.w3.org/2000/svg">
<g id="Logo design">
<g id="Deen app icon">
<g id="quran">
<path id="Vector" d="M22.3662 38.2099C22.3576 38.1791 22.3613 38.1461 22.3766 38.118C22.3919 38.0899 22.4175 38.0689 22.4481 38.0594L39.543 32.9207L39.4773 32.6589L22.2491 37.7681L39.3573 32.4951L38.5156 32C37.373 32.2361 35.0622 32.7065 32.3047 33.2159C28.5142 33.9147 22.8404 34.4279 20.4981 37.3349C18.1577 34.4279 12.4839 33.9147 8.69145 33.2159C5.93022 32.7065 3.62031 32.2361 2.48059 32L1.64746 32.4951L18.7557 37.7681L1.52273 32.6636L1.45703 32.9207L18.5519 38.0623C18.5825 38.0718 18.6081 38.0928 18.6234 38.1209C18.6387 38.149 18.6424 38.1819 18.6338 38.2127L18.5052 38.6783C18.489 38.7371 18.4865 38.7989 18.498 38.8588C18.5095 38.9187 18.5347 38.9752 18.5715 39.0238C18.6083 39.0724 18.6559 39.1119 18.7104 39.1392C18.765 39.1664 18.8251 39.1808 18.8861 39.1811H22.112C22.173 39.1808 22.2331 39.1664 22.2877 39.1392C22.3422 39.1119 22.3898 39.0724 22.4266 39.0238C22.4634 38.9752 22.4886 38.9187 22.5001 38.8588C22.5116 38.7989 22.5091 38.7371 22.4928 38.6783L22.3662 38.2099Z" fill="#1E8787"/>
</g>
<g id="mosue shape">
<path id="Vector_2" d="M35.7344 16.3114V31.5381L35.0517 31.6762V16.3114C35.0517 13.9853 34.528 10.5147 29.9977 7.2574C26.7728 4.93892 24.9656 4.02009 22.8708 2.96226C22.1348 2.58901 21.375 2.20054 20.5 1.73303C19.625 2.20435 18.8652 2.58997 18.1292 2.96226C16.0344 4.02295 14.2253 4.93892 11.0023 7.2574C6.47295 10.5147 5.94832 13.9853 5.94832 16.3114V31.6714L5.26562 31.5343V16.3114C5.26562 14.6051 5.58269 13.095 6.23491 11.6944C7.09185 9.84914 8.56387 8.17146 10.6034 6.70229C13.8711 4.35334 15.7012 3.4269 17.8207 2.35383C18.5976 1.95964 19.4012 1.55212 20.3372 1.04463L20.5 0.957031L20.6628 1.04463C21.5988 1.55212 22.4024 1.95964 23.1793 2.35383C25.2988 3.4269 27.1289 4.35334 30.3966 6.70229C32.4361 8.16955 33.9062 9.84438 34.7651 11.6944C35.4173 13.095 35.7344 14.6051 35.7344 16.3114Z" fill="url(#paint0_linear_12652_5305)"/>
<path id="Vector_3" d="M34.2853 16.6389V31.7676C33.3588 31.9285 32.2715 32.1123 31.0946 32.3027C27.6964 32.8512 22.6091 33.2549 20.5115 35.54C18.4167 33.2549 13.3266 32.854 9.92834 32.3027C8.74102 32.1123 7.64319 31.9219 6.71484 31.7648V16.6389C6.71484 14.1633 7.4261 10.9489 11.5241 8.00104C15.6222 5.05319 17.237 4.55236 20.5 2.78517C23.7612 4.55236 25.3779 5.05129 29.476 8.00295C33.574 10.9546 34.2853 14.1662 34.2853 16.6389Z" fill="#1E8787"/>
<path id="Vector_4" opacity="0.5" d="M34.2848 16.637V31.7676C33.8087 31.8505 33.2822 31.9409 32.7261 32.0333V17.3569C32.7261 14.8813 32.0158 11.6668 27.9178 8.71991C23.8588 5.80253 22.2334 5.28171 19.0361 3.55546C19.4932 3.32123 19.975 3.06986 20.4996 2.78517C23.7607 4.55236 25.3774 5.05129 29.4755 8.00295C33.5735 10.9546 34.2848 14.1643 34.2848 16.637Z" fill="url(#paint1_linear_12652_5305)"/>
</g>
<g id="mosque">
<g id="step 1">
<path id="Vector_5" d="M29.4504 29.5539H11.7052C11.6107 29.5539 11.5172 29.5725 11.4299 29.6087C11.3426 29.6449 11.2633 29.6979 11.1965 29.7648C11.1298 29.8316 11.0768 29.911 11.0408 29.9983C11.0047 30.0856 10.9862 30.1792 10.9863 30.2737V30.7498H30.1655V30.2737C30.1657 30.0835 30.0906 29.901 29.9566 29.7661C29.8226 29.6312 29.6406 29.5549 29.4504 29.5539Z" fill="url(#paint2_linear_12652_5305)"/>
<path id="Vector_6" d="M30.1655 30.2736V30.7525H29.4637H20.6916H20.5783H11.3001H10.9863V30.2736H11.2682H28.5554H30.1655Z" fill="url(#paint3_linear_12652_5305)"/>
</g>
<g id="Vector_7">
<path d="M20.5731 14.5004C22.4603 16.2142 34.6544 19.602 29.7537 29.0511H11.264C6.38419 19.6429 18.4546 16.2495 20.4246 14.5213H20.4455C20.489 14.5227 20.5323 14.5156 20.5731 14.5004Z" fill="url(#paint4_linear_12652_5305)"/>
<path d="M20.5731 14.5004C22.4603 16.2142 34.6544 19.602 29.7537 29.0511H11.264C6.38419 19.6429 18.4546 16.2495 20.4246 14.5213H20.4455C20.489 14.5227 20.5323 14.5156 20.5731 14.5004Z" fill="url(#paint5_linear_12652_5305)"/>
</g>
<path id="Vector_8" d="M29.7539 29.0511H28.1267C32.201 20.0914 22.2234 16.3047 20.3096 14.6175C20.3419 14.5918 20.4105 14.5365 20.4276 14.5223H20.4495C20.4918 14.5233 20.5339 14.5159 20.5733 14.5004C22.4605 16.2171 34.6537 19.601 29.7539 29.0511Z" fill="url(#paint6_linear_12652_5305)"/>
<g id="moon">
<path id="Vector_9" d="M20.5242 12.3104C20.5242 12.3104 20.7956 12.7589 20.7956 12.9826C20.7842 13.0467 20.7506 13.1047 20.7007 13.1465C20.6508 13.1883 20.5879 13.2112 20.5228 13.2112C20.4577 13.2112 20.3947 13.1883 20.3449 13.1465C20.295 13.1047 20.2614 13.0467 20.25 12.9826C20.25 12.7636 20.5242 12.3104 20.5242 12.3104Z" fill="url(#paint7_linear_12652_5305)"/>
<path id="Vector_10" d="M20.2041 13.5254C20.2045 13.4627 20.2234 13.4015 20.2585 13.3495C20.2936 13.2975 20.3433 13.257 20.4013 13.2332C20.4593 13.2093 20.5231 13.2032 20.5846 13.2155C20.6461 13.2279 20.7026 13.2581 20.747 13.3025C20.7913 13.3468 20.8216 13.4033 20.8339 13.4648C20.8463 13.5263 20.8401 13.5901 20.8163 13.6482C20.7925 13.7062 20.752 13.7559 20.7 13.791C20.648 13.826 20.5868 13.845 20.524 13.8453C20.4402 13.8421 20.3608 13.8073 20.3015 13.748C20.2422 13.6887 20.2074 13.6092 20.2041 13.5254Z" fill="url(#paint8_linear_12652_5305)"/>
<path id="Vector_11" d="M20.1738 14.1919C20.1744 14.1232 20.1953 14.0562 20.2338 13.9993C20.2724 13.9424 20.3269 13.8982 20.3905 13.8722C20.4541 13.8462 20.524 13.8396 20.5913 13.8532C20.6587 13.8668 20.7205 13.9001 20.7691 13.9487C20.8176 13.9974 20.8506 14.0593 20.8641 14.1267C20.8775 14.1941 20.8707 14.2639 20.8445 14.3275C20.8184 14.391 20.774 14.4454 20.717 14.4838C20.66 14.5222 20.5929 14.5429 20.5242 14.5433C20.4323 14.5395 20.3452 14.5013 20.2803 14.4361C20.2154 14.371 20.1773 14.2838 20.1738 14.1919Z" fill="url(#paint9_linear_12652_5305)"/>
<g id="moon_2">
<path id="Vector_12" d="M21.3071 9.52641H20.8168C20.8143 9.52647 20.8118 9.5273 20.8098 9.52878C20.8077 9.53027 20.8062 9.53234 20.8054 9.53472C20.8045 9.5371 20.8045 9.53968 20.8051 9.54211C20.8058 9.54453 20.8072 9.5467 20.8092 9.54831L21.2062 9.83395C21.2085 9.83518 21.2103 9.83723 21.2112 9.83969C21.2121 9.84216 21.212 9.84487 21.211 9.84728L21.0596 10.3138C21.0589 10.3162 21.0589 10.3188 21.0596 10.3211C21.0604 10.3235 21.0618 10.3256 21.0637 10.3271C21.0657 10.3287 21.0681 10.3296 21.0706 10.3298C21.073 10.33 21.0755 10.3294 21.0777 10.3281L21.4747 10.0425C21.4768 10.0411 21.4793 10.0404 21.4819 10.0404C21.4844 10.0404 21.4869 10.0411 21.489 10.0425L21.886 10.3281C21.8882 10.3294 21.8907 10.33 21.8931 10.3298C21.8956 10.3296 21.898 10.3287 21.9 10.3271C21.9019 10.3256 21.9034 10.3235 21.9041 10.3211C21.9048 10.3188 21.9049 10.3162 21.9041 10.3138L21.7527 9.84728C21.7512 9.84541 21.7503 9.84305 21.7503 9.84062C21.7503 9.83819 21.7512 9.83583 21.7527 9.83395L22.1498 9.54831C22.1517 9.5467 22.1531 9.54453 22.1538 9.54211C22.1545 9.53968 22.1544 9.5371 22.1536 9.53472C22.1527 9.53234 22.1512 9.53027 22.1492 9.52878C22.1471 9.5273 22.1447 9.52647 22.1422 9.52641H21.6518C21.6492 9.52669 21.6465 9.52597 21.6444 9.52438C21.6423 9.52279 21.6409 9.52045 21.6404 9.51784L21.488 9.05129C21.4871 9.04903 21.4855 9.04711 21.4835 9.04575C21.4815 9.04439 21.4791 9.04367 21.4766 9.04367C21.4742 9.04367 21.4718 9.04439 21.4698 9.04575C21.4677 9.04711 21.4661 9.04903 21.4652 9.05129L21.3138 9.51784C21.3135 9.51971 21.3127 9.52147 21.3115 9.52297C21.3104 9.52446 21.3089 9.52565 21.3071 9.52641Z" fill="url(#paint10_linear_12652_5305)"/>
<path id="Vector_13" d="M21.757 9.8348C21.755 9.83637 21.7535 9.83841 21.7525 9.84074C21.7515 9.84306 21.7511 9.8456 21.7513 9.84813L21.9036 10.3156C21.9041 10.3179 21.9039 10.3203 21.9031 10.3226C21.9022 10.3248 21.9008 10.3267 21.8989 10.3281C21.897 10.3295 21.8947 10.3303 21.8923 10.3305C21.89 10.3306 21.8876 10.3301 21.8855 10.329L21.7684 10.2433L21.6608 9.91287C21.6598 9.91082 21.6592 9.90853 21.6592 9.90621C21.6592 9.90388 21.6598 9.9016 21.6608 9.89954L22.0312 9.63104C22.033 9.6295 22.0342 9.62746 22.0348 9.6252C22.0353 9.62295 22.0352 9.62057 22.0343 9.6184C22.0335 9.61623 22.032 9.61436 22.0301 9.61304C22.0282 9.61173 22.0259 9.61103 22.0236 9.61104H21.5666C21.5642 9.61113 21.5619 9.61043 21.56 9.60904C21.5581 9.60766 21.5567 9.60568 21.5561 9.60342L21.4209 9.18734L21.4666 9.04927C21.4675 9.04702 21.4691 9.04509 21.4712 9.04374C21.4732 9.04238 21.4756 9.04166 21.478 9.04166C21.4805 9.04166 21.4829 9.04238 21.4849 9.04374C21.4869 9.04509 21.4885 9.04702 21.4895 9.04927L21.6399 9.51583C21.6411 9.51815 21.6429 9.52014 21.645 9.52164C21.6472 9.52313 21.6497 9.52408 21.6523 9.52439H22.1436C22.1459 9.52478 22.1481 9.52585 22.1499 9.52746C22.1517 9.52907 22.153 9.53117 22.1536 9.53349C22.1542 9.53581 22.1541 9.53825 22.1533 9.54052C22.1526 9.5428 22.1512 9.5448 22.1493 9.5463L21.757 9.8348Z" fill="url(#paint11_linear_12652_5305)"/>
<path id="Vector_14" d="M22.9114 10.9279C22.7925 11.2687 22.5889 11.5736 22.3199 11.8142C22.0509 12.0547 21.7252 12.2231 21.3734 12.3033C21.0215 12.3836 20.6551 12.3732 20.3084 12.2731C19.9616 12.173 19.646 11.9864 19.3911 11.731C19.1362 11.4755 18.9503 11.1595 18.8509 10.8126C18.7516 10.4656 18.7419 10.0992 18.8229 9.74748C18.9039 9.3958 19.0729 9.07046 19.3141 8.80196C19.5552 8.53346 19.8606 8.3306 20.2016 8.2124C19.8539 8.5743 19.6619 9.05798 19.6667 9.55976C19.6715 10.0615 19.8727 10.5415 20.2271 10.8967C20.5816 11.2519 21.0611 11.4541 21.5629 11.4599C22.0647 11.4658 22.5487 11.2748 22.9114 10.9279Z" fill="url(#paint12_linear_12652_5305)"/>
<path id="Vector_15" d="M22.9118 10.9279C21.9378 12.2552 20.2791 12.0972 19.5479 11.1717C18.9109 10.3576 18.9318 9.0398 20.1991 8.21239C19.8515 8.57428 19.6595 9.05797 19.6643 9.55975C19.6691 10.0615 19.8703 10.5415 20.2247 10.8967C20.5792 11.2519 21.0587 11.4541 21.5605 11.4599C22.0622 11.4657 22.5463 11.2748 22.9089 10.9279H22.9118Z" fill="url(#paint13_linear_12652_5305)"/>
</g>
</g>
</g>
</g>
</g>
<defs>
<linearGradient id="paint0_linear_12652_5305" x1="30.3052" y1="3.11996" x2="7.33797" y2="25.884" gradientUnits="userSpaceOnUse">
<stop stop-color="#2FB68E"/>
<stop offset="1" stop-color="#1E8787"/>
</linearGradient>
<linearGradient id="paint1_linear_12652_5305" x1="33.2636" y1="31.618" x2="15.9096" y2="4.97461" gradientUnits="userSpaceOnUse">
<stop stop-color="#2FB68E"/>
<stop offset="1" stop-color="#1E8787"/>
</linearGradient>
<linearGradient id="paint2_linear_12652_5305" x1="28.8898" y1="29.6551" x2="28.8366" y2="31.1029" gradientUnits="userSpaceOnUse">
<stop stop-color="white"/>
<stop offset="1" stop-color="#DDEDED"/>
</linearGradient>
<linearGradient id="paint3_linear_12652_5305" x1="10.9863" y1="30.2736" x2="11.0454" y2="31.3362" gradientUnits="userSpaceOnUse">
<stop stop-color="#DDEDED"/>
<stop offset="1" stop-color="white"/>
</linearGradient>
<linearGradient id="paint4_linear_12652_5305" x1="27.201" y1="15.5249" x2="16.9778" y2="30.1251" gradientUnits="userSpaceOnUse">
<stop stop-color="#2FB68E"/>
<stop offset="1" stop-color="#1E8787"/>
</linearGradient>
<linearGradient id="paint5_linear_12652_5305" x1="29.5233" y1="15.7325" x2="23.3062" y2="30.8078" gradientUnits="userSpaceOnUse">
<stop stop-color="white"/>
<stop offset="1" stop-color="#DDEDED"/>
</linearGradient>
<linearGradient id="paint6_linear_12652_5305" x1="22.4781" y1="13.8076" x2="22.8949" y2="29.7687" gradientUnits="userSpaceOnUse">
<stop stop-color="#DDEDED"/>
<stop offset="1" stop-color="white"/>
</linearGradient>
<linearGradient id="paint7_linear_12652_5305" x1="20.7593" y1="12.3867" x2="20.2135" y2="12.9476" gradientUnits="userSpaceOnUse">
<stop stop-color="white"/>
<stop offset="1" stop-color="#DDEDED"/>
</linearGradient>
<linearGradient id="paint8_linear_12652_5305" x1="20.7978" y1="13.2632" x2="20.4606" y2="13.8354" gradientUnits="userSpaceOnUse">
<stop stop-color="white"/>
<stop offset="1" stop-color="#DDEDED"/>
</linearGradient>
<linearGradient id="paint9_linear_12652_5305" x1="20.8244" y1="13.9053" x2="20.4548" y2="14.5324" gradientUnits="userSpaceOnUse">
<stop stop-color="white"/>
<stop offset="1" stop-color="#DDEDED"/>
</linearGradient>
<linearGradient id="paint10_linear_12652_5305" x1="22.0645" y1="9.15258" x2="21.3988" y2="10.3378" gradientUnits="userSpaceOnUse">
<stop stop-color="white"/>
<stop offset="1" stop-color="#DDEDED"/>
</linearGradient>
<linearGradient id="paint11_linear_12652_5305" x1="21.5709" y1="8.98029" x2="21.6182" y2="10.3934" gradientUnits="userSpaceOnUse">
<stop stop-color="#DDEDED"/>
<stop offset="1" stop-color="white"/>
</linearGradient>
<linearGradient id="paint12_linear_12652_5305" x1="22.6358" y1="8.56333" x2="20.4378" y2="12.2914" gradientUnits="userSpaceOnUse">
<stop stop-color="white"/>
<stop offset="1" stop-color="#DDEDED"/>
</linearGradient>
<linearGradient id="paint13_linear_12652_5305" x1="19.8434" y1="8.08048" x2="20.3251" y2="13.2446" gradientUnits="userSpaceOnUse">
<stop stop-color="#DDEDED"/>
<stop offset="1" stop-color="white"/>
</linearGradient>
</defs>
</svg>
